External Loads File
version=1
nRows=38
nColumns=13
Range=5.000000e-03-10 seconds
endheader
time 	forceRightX 	forceRightY 	forceRightZ 	pointRightX 	pointRightY 	pointRightZ 	forceLeftX 	forceLeftY 	forceLeftZ 	pointLeftX 	pointLeftY 	pointLeftZ 		
7.505000 319.085518 798.550606 -0.000000 0.254346 0.134327 -0.165653 -30.724738 -15.888583 -0.000000 0.314093 0.463862 -0.413837
7.510000 316.910427 742.608383 -0.000000 0.244742 0.134691 -0.165373 -37.582825 -11.365596 -0.000000 0.324282 0.463203 -0.413928
7.515000 309.313105 680.380646 -0.000000 0.235293 0.135815 -0.165058 -42.820872 -5.660027 -0.000000 0.333887 0.462188 -0.414161
7.520000 297.551968 612.541889 -0.000000 0.226057 0.137716 -0.164688 -46.460520 1.526555 -0.000000 0.343053 0.460071 -0.414730
7.525000 281.071598 541.037117 -0.000000 0.217081 0.139956 -0.164261 -48.569304 10.607689 -0.000000 0.351612 0.457711 -0.415434
7.530000 261.255294 467.208324 -0.000000 0.208459 0.142976 -0.163774 -49.288659 22.257156 -0.000000 0.359919 0.454963 -0.415915
7.535000 238.538293 392.978022 -0.000000 0.200173 0.146804 -0.163404 -48.823896 37.107351 -0.000000 0.367569 0.451485 -0.416162
7.540000 213.448833 320.198144 -0.000000 0.192335 0.151198 -0.163005 -47.466254 55.732113 -0.000000 0.374613 0.447656 -0.416389
7.545000 187.189936 250.109990 -0.000000 0.185059 0.156147 -0.162318 -45.507325 78.664017 -0.000000 0.381238 0.443200 -0.416808
7.550000 160.651135 183.848931 -0.000000 0.178073 0.161699 -0.161638 -43.287529 106.247678 -0.000000 0.387076 0.438175 -0.417157
7.555000 134.715250 122.245852 -0.000000 0.171370 0.167953 -0.161168 -41.155625 138.634159 -0.000000 0.392200 0.432902 -0.416901
7.560000 110.325416 65.627584 -0.000000 0.164190 0.174818 -0.161378 -39.083254 175.788859 -0.000000 0.396819 0.427188 -0.416979
7.565000 87.647116 14.868492 -0.000000 0.157939 0.182289 -0.161139 -37.917435 217.124353 -0.000000 0.400805 0.421007 -0.416988
7.570000 67.045428 -29.886784 -0.000000 0.152190 0.190356 -0.161090 -37.685861 261.919674 -0.000000 0.404481 0.414152 -0.417156
7.575000 48.290535 -68.329827 -0.000000 0.146886 0.199062 -0.161610 -38.262114 309.042624 -0.000000 0.408180 0.406557 -0.417441
7.580000 31.175141 -99.963097 -0.000000 0.142457 0.208036 -0.161863 -40.321081 356.860118 -0.000000 0.411384 0.398215 -0.417471
7.585000 15.474465 -124.505521 -0.000000 0.138473 0.216982 -0.161843 -43.668635 403.572505 -0.000000 0.414444 0.389353 -0.417378
7.590000 1.313327 -141.830694 -0.000000 0.135392 0.226083 -0.162054 -48.450375 447.289014 -0.000000 0.417139 0.380112 -0.417242
7.595000 -11.122105 -152.192226 -0.000000 0.132643 0.235307 -0.162301 -54.075370 486.462662 -0.000000 0.419526 0.370583 -0.417125
7.600000 -21.451903 -156.238138 -0.000000 0.130355 0.244820 -0.162427 -59.981982 520.090364 -0.000000 0.421577 0.360706 -0.416844
7.605000 -29.228771 -154.976960 -0.000000 0.128527 0.254724 -0.162653 -65.865108 547.791335 -0.000000 0.423349 0.350671 -0.416362
7.610000 -34.213485 -149.570939 -0.000000 0.127076 0.264817 -0.162798 -71.408063 569.749481 -0.000000 0.424745 0.340294 -0.416069
7.615000 -36.494106 -141.084088 -0.000000 0.126129 0.275346 -0.162919 -76.027721 586.599645 -0.000000 0.425805 0.329671 -0.415482
7.620000 -36.047954 -130.444412 -0.000000 0.125692 0.285959 -0.163079 -80.590033 599.068067 -0.000000 0.426216 0.319076 -0.415571
7.625000 -33.310114 -118.251830 -0.000000 0.125825 0.296570 -0.163281 -84.957843 608.183380 -0.000000 0.426292 0.308528 -0.415613
7.630000 -28.861695 -104.887843 -0.000000 0.126505 0.307265 -0.163406 -88.460600 615.173055 -0.000000 0.425710 0.297867 -0.415144
7.635000 -22.925680 -90.772775 -0.000000 0.127755 0.317649 -0.163393 -92.137890 621.036535 -0.000000 0.424692 0.287364 -0.414757
7.640000 -16.093863 -76.287881 -0.000000 0.129739 0.328107 -0.163526 -94.307386 627.031384 -0.000000 0.423028 0.276793 -0.414742
7.645000 -8.646412 -62.014075 -0.000000 0.132180 0.338546 -0.163789 -94.854629 633.957500 -0.000000 0.420897 0.266196 -0.414559
7.650000 -0.948271 -48.559049 -0.000000 0.135174 0.348894 -0.163908 -93.509096 642.364465 -0.000000 0.418094 0.255668 -0.414578
7.655000 6.545630 -36.433484 -0.000000 0.138794 0.359241 -0.164100 -89.659583 652.556531 -0.000000 0.414751 0.245231 -0.414379
7.660000 13.427775 -25.963701 -0.000000 0.143016 0.369438 -0.164433 -83.540839 664.434695 -0.000000 0.410770 0.235072 -0.414206
7.665000 19.318195 -17.271831 -0.000000 0.147768 0.379298 -0.164750 -75.449568 677.690373 -0.000000 0.406247 0.225225 -0.414022
7.670000 23.895528 -10.341466 -0.000000 0.153091 0.388960 -0.165050 -64.531276 692.021230 -0.000000 0.401151 0.215511 -0.413842
7.675000 27.009785 -4.985220 -0.000000 0.159075 0.398325 -0.165342 -51.329313 706.905306 -0.000000 0.395464 0.206227 -0.413725
7.680000 28.647030 -0.958411 -0.000000 0.165518 0.407260 -0.165782 -36.284138 721.827436 -0.000000 0.389229 0.197298 -0.413752
7.685000 28.919664 1.944939 -0.000000 0.172527 0.415765 -0.166086 -19.447624 736.286204 -0.000000 0.382571 0.188653 -0.413751
7.690000 28.004174 3.947746 -0.000000 0.179759 0.423795 -0.166760 -2.146035 749.780013 -0.000000 0.375481 0.180584 -0.413693
